<mxfile host="app.diagrams.net" modified="2022-06-27T10:13:10.859Z" agent="5.0 (Macintosh; Intel Mac OS X 10_15_7) AppleWebKit/537.36 (KHTML, like Gecko) Chrome/102.0.0.0 Safari/537.36" etag="hRxtY8o0wYNQEZztJysN" version="20.0.3" type="github">
  <diagram id="_mHNygpnw6PfLUeG_8CI" name="Page-1">
    <mxGraphModel dx="1426" dy="712" grid="1" gridSize="10" guides="1" tooltips="1" connect="1" arrows="1" fold="1" page="1" pageScale="1" pageWidth="850" pageHeight="1100" math="0" shadow="0">
      <root>
        <mxCell id="0" />
        <mxCell id="1" parent="0" />
        <mxCell id="DfUfHu4lcwBHwSGKjZE5-1" value="" style="rounded=0;whiteSpace=wrap;html=1;" vertex="1" parent="1">
          <mxGeometry x="260" y="160" width="390" height="280" as="geometry" />
        </mxCell>
        <mxCell id="DfUfHu4lcwBHwSGKjZE5-2" value="PageOptimizingInvervention&lt;br&gt;" style="text;html=1;strokeColor=none;fillColor=none;align=center;verticalAlign=middle;whiteSpace=wrap;rounded=0;" vertex="1" parent="1">
          <mxGeometry x="380" y="170" width="60" height="30" as="geometry" />
        </mxCell>
        <mxCell id="DfUfHu4lcwBHwSGKjZE5-3" value="" style="rounded=0;whiteSpace=wrap;html=1;" vertex="1" parent="1">
          <mxGeometry x="280" y="210" width="350" height="220" as="geometry" />
        </mxCell>
        <mxCell id="DfUfHu4lcwBHwSGKjZE5-4" value="Tabs" style="text;html=1;strokeColor=none;fillColor=none;align=center;verticalAlign=middle;whiteSpace=wrap;rounded=0;" vertex="1" parent="1">
          <mxGeometry x="360" y="220" width="60" height="30" as="geometry" />
        </mxCell>
        <mxCell id="DfUfHu4lcwBHwSGKjZE5-5" value="SingleIntervention" style="rounded=0;whiteSpace=wrap;html=1;" vertex="1" parent="1">
          <mxGeometry x="310" y="260" width="130" height="140" as="geometry" />
        </mxCell>
        <mxCell id="DfUfHu4lcwBHwSGKjZE5-6" value="BatchIntervention" style="rounded=0;whiteSpace=wrap;html=1;" vertex="1" parent="1">
          <mxGeometry x="460" y="260" width="130" height="140" as="geometry" />
        </mxCell>
      </root>
    </mxGraphModel>
  </diagram>
</mxfile>
